<svg width="19" height="28" viewBox="0 0 19 28" fill="none" xmlns="http://www.w3.org/2000/svg">
<path d="M18.1083 7.13647C18.089 7.13647 18.06 7.13647 18.0311 7.13647C12.9231 6.44624 7.82477 6.18577 2.7747 6.876L0.804895 7.13647C0.399347 7.18856 0.0420782 6.79787 0.00345458 6.25089C-0.0351691 5.70391 0.254508 5.23507 0.650401 5.18298L2.62021 4.92252C7.75718 4.21926 12.9617 4.49275 18.1759 5.18298C18.5718 5.23507 18.8615 5.71693 18.8228 6.25089C18.7939 6.7588 18.4752 7.13647 18.1083 7.13647Z" fill="#292D32"/>
<path d="M6.03936 5.8214C6.00074 5.8214 5.96212 5.8214 5.91384 5.80837C5.5276 5.71721 5.25723 5.2093 5.32483 4.68837L5.53726 2.98233C5.69175 1.73209 5.90418 0 8.15397 0H10.6838C12.9433 0 13.1557 1.79721 13.3006 2.99535L13.513 4.68837C13.5806 5.22233 13.3102 5.73023 12.924 5.80837C12.5281 5.89954 12.1515 5.53488 12.0936 5.01395L11.8811 3.32093C11.746 2.18791 11.717 1.96651 10.6935 1.96651H8.16362C7.14014 1.96651 7.12082 2.14884 6.97599 3.30791L6.7539 5.00093C6.69596 5.48279 6.38698 5.8214 6.03936 5.8214Z" fill="#292D32"/>
<path d="M12.5183 28H6.31919C2.94928 28 2.8141 25.4865 2.70789 23.4549L2.08025 10.3404C2.05128 9.80645 2.36027 9.33763 2.75616 9.29856C3.16171 9.27251 3.49967 9.67623 3.52864 10.2102L4.15627 23.3246C4.26249 25.3042 4.30111 26.0465 6.31919 26.0465H12.5183C14.546 26.0465 14.5847 25.3042 14.6812 23.3246L15.3089 10.2102C15.3378 9.67623 15.6854 9.27251 16.0813 9.29856C16.4772 9.33763 16.7862 9.79343 16.7572 10.3404L16.1296 23.4549C16.0234 25.4865 15.8882 28 12.5183 28Z" fill="#292D32"/>
<path d="M11.0214 20.837H7.806C7.41009 20.837 7.08179 20.3942 7.08179 19.8603C7.08179 19.3263 7.41009 18.8835 7.806 18.8835H11.0214C11.4173 18.8835 11.7456 19.3263 11.7456 19.8603C11.7456 20.3942 11.4173 20.837 11.0214 20.837Z" fill="#292D32"/>
<path d="M11.8322 15.6278H7.00422C6.60833 15.6278 6.28003 15.185 6.28003 14.6511C6.28003 14.1171 6.60833 13.6743 7.00422 13.6743H11.8322C12.2281 13.6743 12.5564 14.1171 12.5564 14.6511C12.5564 15.185 12.2281 15.6278 11.8322 15.6278Z" fill="#292D32"/>
</svg>
